<?xml version="1.0" encoding="UTF-8"?>
<!DOCTYPE svg PUBLIC "-//W3C//DTD SVG 1.1//EN" "http://www.w3.org/Graphics/SVG/1.1/DTD/svg11.dtd">
<svg xmlns="http://www.w3.org/2000/svg" version="1.1" width="2560px" height="635px" style="shape-rendering:geometricPrecision; text-rendering:geometricPrecision; image-rendering:optimizeQuality; fill-rule:evenodd; clip-rule:evenodd" xmlns:xlink="http://www.w3.org/1999/xlink">
<g><path style="opacity:0.983" fill="#19171a" d="M 126.5,-0.5 C 136.167,-0.5 145.833,-0.5 155.5,-0.5C 155.5,51.1667 155.5,102.833 155.5,154.5C 145.833,154.5 136.167,154.5 126.5,154.5C 126.5,102.833 126.5,51.1667 126.5,-0.5 Z"/></g>
<g><path style="opacity:0.994" fill="#e0001a" d="M 2314.5,23.5 C 2349.5,23.5 2384.5,23.5 2419.5,23.5C 2419.5,177.167 2419.5,330.833 2419.5,484.5C 2384.5,484.5 2349.5,484.5 2314.5,484.5C 2314.67,475.161 2314.5,465.827 2314,456.5C 2284.8,479.568 2251.97,486.735 2215.5,478C 2170.63,466.144 2138.8,438.977 2120,396.5C 2099.79,346.613 2099.45,296.613 2119,246.5C 2147.91,183.613 2197.08,154.447 2266.5,159C 2283.49,161.33 2299.32,166.83 2314,175.5C 2314.5,124.834 2314.67,74.1678 2314.5,23.5 Z M 2248.5,254.5 C 2279.89,253.093 2302.39,266.427 2316,294.5C 2326.74,328.284 2317.57,355.117 2288.5,375C 2259.07,389.178 2232.57,385.011 2209,362.5C 2188.2,335.564 2187.2,307.897 2206,279.5C 2217.25,266.129 2231.41,257.796 2248.5,254.5 Z"/></g>
<g><path style="opacity:0.996" fill="#df0019" d="M 553.5,23.5 C 587.167,23.5 620.833,23.5 654.5,23.5C 654.5,177.167 654.5,330.833 654.5,484.5C 620.833,484.5 587.167,484.5 553.5,484.5C 553.5,330.833 553.5,177.167 553.5,23.5 Z"/></g>
<g><path style="opacity:0.928" fill="#888689" d="M 2559.5,72.5 C 2559.5,79.5 2559.5,86.5 2559.5,93.5C 2549.59,128.883 2526.26,144.716 2489.5,141C 2455.03,131.173 2439.53,108.34 2443,72.5C 2448.95,46.2152 2465.12,30.3818 2491.5,25C 2527.29,22.3713 2549.95,38.2047 2559.5,72.5 Z M 2493.5,33.5 C 2514.4,31.867 2530.9,39.5337 2543,56.5C 2556.99,84.717 2551.15,107.884 2525.5,126C 2498.96,137.928 2476.79,132.428 2459,109.5C 2446.1,84.6884 2449.93,62.855 2470.5,44C 2477.51,38.8265 2485.17,35.3265 2493.5,33.5 Z M 2486.5,58.5 C 2494.89,58.1696 2503.23,58.6696 2511.5,60C 2515.24,61.7997 2516.9,64.7997 2516.5,69C 2516.9,73.2003 2515.24,76.2003 2511.5,78C 2503.24,79.3699 2494.9,79.8699 2486.5,79.5C 2486.5,72.5 2486.5,65.5 2486.5,58.5 Z"/></g>
<g><path style="opacity:0.989" fill="#191719" d="M 169.5,35.5 C 248.833,35.5 328.167,35.5 407.5,35.5C 407.5,177.833 407.5,320.167 407.5,462.5C 369.5,462.5 331.5,462.5 293.5,462.5C 293.5,359.833 293.5,257.167 293.5,154.5C 252.167,154.5 210.833,154.5 169.5,154.5C 169.5,114.833 169.5,75.1667 169.5,35.5 Z"/></g>
<g><path style="opacity:0.996" fill="#191719" d="M -0.5,36.5 C 37.1667,36.5 74.8333,36.5 112.5,36.5C 112.5,139.167 112.5,241.833 112.5,344.5C 153.833,344.5 195.167,344.5 236.5,344.5C 236.5,384.167 236.5,423.833 236.5,463.5C 157.5,463.5 78.5,463.5 -0.5,463.5C -0.5,321.167 -0.5,178.833 -0.5,36.5 Z"/></g>
<g><path style="opacity:0.927" fill="#888689" d="M 2477.5,51.5 C 2489.5,51.3335 2501.5,51.5001 2513.5,52C 2524.21,55.2344 2528.37,62.4011 2526,73.5C 2524.81,77.2104 2522.65,80.2104 2519.5,82.5C 2521.53,83.6933 2523.03,85.36 2524,87.5C 2525.16,94.1034 2525.83,100.77 2526,107.5C 2526.97,109.305 2528.14,110.972 2529.5,112.5C 2525.55,113.491 2521.55,113.824 2517.5,113.5C 2516.89,106.85 2516.39,100.184 2516,93.5C 2514.51,88.9964 2511.34,86.8297 2506.5,87C 2499.84,86.5004 2493.17,86.3337 2486.5,86.5C 2486.5,95.5 2486.5,104.5 2486.5,113.5C 2483.5,113.5 2480.5,113.5 2477.5,113.5C 2477.5,92.8333 2477.5,72.1667 2477.5,51.5 Z M 2486.5,58.5 C 2486.5,65.5 2486.5,72.5 2486.5,79.5C 2494.9,79.8699 2503.24,79.3699 2511.5,78C 2515.24,76.2003 2516.9,73.2003 2516.5,69C 2516.9,64.7997 2515.24,61.7997 2511.5,60C 2503.23,58.6696 2494.89,58.1696 2486.5,58.5 Z"/></g>
<g><path style="opacity:0.995" fill="#e00019" d="M 827.5,134.5 C 911.205,137.376 965.705,178.709 991,258.5C 998.269,286.434 1000.44,314.767 997.5,343.5C 925.167,343.5 852.833,343.5 780.5,343.5C 782.264,373.765 797.931,392.265 827.5,399C 840.038,400.298 852.371,399.298 864.5,396C 874.436,392.555 882.103,386.388 887.5,377.5C 922.16,376.5 956.827,376.167 991.5,376.5C 978.761,425.073 949.761,460.239 904.5,482C 851.987,501.479 800.987,498.145 751.5,472C 713.12,447.121 688.62,412.288 678,367.5C 669.812,331.893 669.479,296.226 677,260.5C 695.483,195.683 737.316,154.85 802.5,138C 810.948,136.578 819.282,135.412 827.5,134.5 Z M 824.5,224.5 C 855.031,222.235 875.865,235.235 887,263.5C 887.953,266.432 888.453,269.432 888.5,272.5C 852.167,272.5 815.833,272.5 779.5,272.5C 784.192,246.809 799.192,230.809 824.5,224.5 Z"/></g>
<g><path style="opacity:0.996" fill="#e0001a" d="M 1553.5,141.5 C 1557.17,141.5 1560.83,141.5 1564.5,141.5C 1564.5,168.833 1564.5,196.167 1564.5,223.5C 1534.54,225.644 1509.04,237.311 1488,258.5C 1478.33,270.474 1472.33,284.141 1470,299.5C 1469.5,361.166 1469.33,422.832 1469.5,484.5C 1433.17,484.5 1396.83,484.5 1360.5,484.5C 1360.5,372.167 1360.5,259.833 1360.5,147.5C 1396.83,147.5 1433.17,147.5 1469.5,147.5C 1469.33,158.505 1469.5,169.505 1470,180.5C 1493.99,159.253 1521.83,146.253 1553.5,141.5 Z"/></g>
<g><path style="opacity:0.992" fill="#e0001a" d="M 1588.5,141.5 C 1613.84,141.333 1639.17,141.5 1664.5,142C 1686.3,143.701 1707.3,148.701 1727.5,157C 1761.32,174.13 1779.48,201.63 1782,239.5C 1782.5,321.166 1782.67,402.833 1782.5,484.5C 1749.5,484.5 1716.5,484.5 1683.5,484.5C 1683.67,477.825 1683.5,471.158 1683,464.5C 1659.41,479.754 1633.58,485.587 1605.5,482C 1537.39,469.198 1504.89,428.032 1508,358.5C 1508.85,323.635 1522.02,294.468 1547.5,271C 1588.8,241.804 1632.47,237.971 1678.5,259.5C 1679.89,241.802 1672.22,229.635 1655.5,223C 1650.59,221.524 1645.59,220.524 1640.5,220C 1623.15,219.271 1605.82,219.437 1588.5,220.5C 1588.5,194.167 1588.5,167.833 1588.5,141.5 Z M 1635.5,317.5 C 1661.1,316.285 1677.27,327.951 1684,352.5C 1686.31,378.184 1675.14,394.684 1650.5,402C 1623.97,404.497 1607.14,392.997 1600,367.5C 1598.35,341.112 1610.18,324.446 1635.5,317.5 Z"/></g>
<g><path style="opacity:0.994" fill="#e00019" d="M 1209.5,634.5 C 1189.83,634.5 1170.17,634.5 1150.5,634.5C 1111.96,629.27 1077.63,614.437 1047.5,590C 1022.03,567.011 1006.7,538.511 1001.5,504.5C 1041.83,504.333 1082.17,504.5 1122.5,505C 1130.69,519.844 1143.02,529.511 1159.5,534C 1180.67,539.855 1200.67,537.188 1219.5,526C 1227.26,519.983 1232.09,512.15 1234,502.5C 1234.67,487.5 1234.67,472.5 1234,457.5C 1213.86,472.755 1191.02,480.421 1165.5,480.5C 1113.81,478.573 1072.31,457.239 1041,416.5C 1016.4,379.217 1006.4,338.217 1011,293.5C 1016.52,234.043 1045.68,190.876 1098.5,164C 1139.26,146.132 1179.26,147.466 1218.5,168C 1223.96,171.787 1229.12,175.954 1234,180.5C 1234.5,169.172 1234.67,157.838 1234.5,146.5C 1268.5,146.5 1302.5,146.5 1336.5,146.5C 1336.67,271.167 1336.5,395.834 1336,520.5C 1331.41,561.058 1311.58,591.558 1276.5,612C 1255.36,623.435 1233.03,630.935 1209.5,634.5 Z M 1167.5,251.5 C 1204.82,252.065 1227.99,270.398 1237,306.5C 1239.74,334.846 1229.24,356.68 1205.5,372C 1176.88,386.145 1150.72,382.645 1127,361.5C 1104.03,333.84 1102.7,305.173 1123,275.5C 1134.86,261.823 1149.69,253.823 1167.5,251.5 Z"/></g>
<g><path style="opacity:0.99" fill="#e00019" d="M 1804.5,146.5 C 1839.17,146.5 1873.83,146.5 1908.5,146.5C 1908.17,156.855 1908.5,167.188 1909.5,177.5C 1937.2,158.433 1967.87,148.933 2001.5,149C 2040.55,152.398 2067.39,172.231 2082,208.5C 2083.97,214.696 2085.31,221.029 2086,227.5C 2086.5,313.166 2086.67,398.833 2086.5,484.5C 2052.17,484.5 2017.83,484.5 1983.5,484.5C 1983.67,415.499 1983.5,346.499 1983,277.5C 1978.2,259.079 1966.2,249.412 1947,248.5C 1926.75,249.767 1914.08,260.1 1909,279.5C 1908.5,347.833 1908.33,416.166 1908.5,484.5C 1873.83,484.5 1839.17,484.5 1804.5,484.5C 1804.5,371.833 1804.5,259.167 1804.5,146.5 Z"/></g>
<g><path style="opacity:0.977" fill="#181719" d="M 251.5,343.5 C 260.833,343.5 270.167,343.5 279.5,343.5C 279.5,395.833 279.5,448.167 279.5,500.5C 270.167,500.5 260.833,500.5 251.5,500.5C 251.5,448.167 251.5,395.833 251.5,343.5 Z"/></g>
</svg>
