<?xml version="1.0" encoding="UTF-8"?>
<!DOCTYPE svg PUBLIC "-//W3C//DTD SVG 1.1//EN" "http://www.w3.org/Graphics/SVG/1.1/DTD/svg11.dtd">
<svg xmlns="http://www.w3.org/2000/svg" version="1.1" width="3500px" height="878px" style="shape-rendering:geometricPrecision; text-rendering:geometricPrecision; image-rendering:optimizeQuality; fill-rule:evenodd; clip-rule:evenodd" xmlns:xlink="http://www.w3.org/1999/xlink">
<g><path style="opacity:0.997" fill="#00448c" d="M 1789.5,-0.5 C 1807.5,-0.5 1825.5,-0.5 1843.5,-0.5C 1844.04,92.166 1844.54,184.833 1845,277.5C 1871.32,261.255 1898.48,246.422 1926.5,233C 1997.16,201.889 2065.16,206.889 2130.5,248C 2173.27,275.366 2207.11,311.199 2232,355.5C 2276.3,440.62 2288.97,530.287 2270,624.5C 2252.32,708.075 2210.82,776.909 2145.5,831C 2101.39,859.659 2052.89,874.159 2000,874.5C 1951.82,874.746 1906.32,863.913 1863.5,842C 1854.9,837.119 1846.74,831.619 1839,825.5C 1837.17,840.138 1835.67,854.805 1834.5,869.5C 1778.51,868.533 1722.51,868.2 1666.5,868.5C 1665.15,579.825 1663.48,291.159 1661.5,2.5C 1704.33,1.66182 1747,0.661817 1789.5,-0.5 Z M 1965.5,382.5 C 2001.99,379.998 2031.16,393.331 2053,422.5C 2078.27,460.731 2090.44,502.898 2089.5,549C 2090.46,585.218 2082.62,619.385 2066,651.5C 2043.06,690.078 2008.89,710.411 1963.5,712.5C 1927.67,710.169 1898.83,694.836 1877,666.5C 1850.15,630.273 1836.65,589.44 1836.5,544C 1836.22,503.925 1847.72,467.758 1871,435.5C 1896.11,406.527 1927.61,388.86 1965.5,382.5 Z"/></g>
<g><path style="opacity:0.996" fill="#00448c" d="M 2679.5,877.5 C 2662.83,877.5 2646.17,877.5 2629.5,877.5C 2564.3,873.617 2503.96,854.45 2448.5,820C 2378.12,769.526 2335.29,701.36 2320,615.5C 2305.1,514.643 2325.44,421.643 2381,336.5C 2414.39,287.399 2458.22,250.899 2512.5,227C 2566.41,206.262 2621.41,202.929 2677.5,217C 2773.63,240.793 2838.46,299.293 2872,392.5C 2891.83,450.999 2901.33,511.166 2900.5,573C 2900.23,584.171 2899.9,595.338 2899.5,606.5C 2768.17,609.08 2636.84,611.413 2505.5,613.5C 2520.44,674.604 2559.1,709.104 2621.5,717C 2652.83,719.356 2683.83,717.022 2714.5,710C 2767.58,697.307 2819.41,680.807 2870,660.5C 2870.15,692.955 2868.15,725.288 2864,757.5C 2861.47,777.638 2856.13,796.972 2848,815.5C 2810.49,845.133 2767.99,863.967 2720.5,872C 2706.74,874.248 2693.07,876.081 2679.5,877.5 Z M 2607.5,365.5 C 2646.32,365.848 2675.82,382.514 2696,415.5C 2707.86,435.245 2715.03,456.579 2717.5,479.5C 2646.83,479.5 2576.17,479.5 2505.5,479.5C 2510.77,443.792 2526.44,413.626 2552.5,389C 2568.55,375.639 2586.88,367.805 2607.5,365.5 Z"/></g>
<g><path style="opacity:0.997" fill="#00448c" d="M 432.5,282.5 C 428.346,283.157 426.013,285.657 425.5,290C 426.167,290.333 426.833,290.667 427.5,291C 426.577,293.041 426.244,295.208 426.5,297.5C 429.518,297.665 432.518,297.498 435.5,297C 436,296.5 436.5,296 437,295.5C 437.148,292.411 437.981,289.578 439.5,287C 438.779,283.805 436.779,282.305 433.5,282.5C 434.981,278.675 435.815,274.675 436,270.5C 436.333,262.167 436.667,253.833 437,245.5C 437.206,239.723 438.039,234.056 439.5,228.5C 496.82,226.916 554.154,225.916 611.5,225.5C 611.721,439.167 612.054,652.834 612.5,866.5C 554.832,866.701 497.166,867.035 439.5,867.5C 439.667,851.497 439.5,835.497 439,819.5C 438.692,818.692 438.192,818.025 437.5,817.5C 401.14,839.012 362.807,856.179 322.5,869C 308.191,872.696 293.858,875.529 279.5,877.5C 266.5,877.5 253.5,877.5 240.5,877.5C 179.536,867.935 128.036,840.602 86,795.5C 46.1862,749.2 20.1862,695.867 8,635.5C 4.08689,615.84 1.25355,596.173 -0.5,576.5C -0.5,556.5 -0.5,536.5 -0.5,516.5C 3.27158,459.092 18.4382,404.758 45,353.5C 90.354,271.558 159.854,225.391 253.5,215C 313.372,209.292 366.705,224.958 413.5,262C 420.485,268.475 426.818,275.308 432.5,282.5 Z M 309.5,382.5 C 344.98,380.827 374.146,393.494 397,420.5C 424.204,458.122 437.371,500.289 436.5,547C 437.211,583.32 429.045,617.486 412,649.5C 382.215,698.476 339.048,718.31 282.5,709C 250.807,698.304 226.64,678.471 210,649.5C 186.329,604.809 178.663,557.476 187,507.5C 190.462,479.776 199.462,454.11 214,430.5C 219.54,423.293 226.04,417.126 233.5,412C 256.833,396.728 282.166,386.894 309.5,382.5 Z"/></g>
<g><path style="opacity:0.997" fill="#00448c" d="M 1352.5,213.5 C 1383.19,212.891 1413.19,217.058 1442.5,226C 1502.47,249.301 1541.63,291.801 1560,353.5C 1568.73,385.931 1573.73,418.931 1575,452.5C 1575.67,479.167 1575.67,505.833 1575,532.5C 1572.46,577.973 1570.62,623.473 1569.5,669C 1568.77,705.008 1572.61,740.508 1581,775.5C 1589.9,809.321 1606.07,838.988 1629.5,864.5C 1618.52,865.332 1607.52,865.832 1596.5,866C 1547.16,866.625 1497.83,866.958 1448.5,867C 1430.82,852.148 1417.65,833.982 1409,812.5C 1398.2,784.165 1391.87,754.832 1390,724.5C 1388.97,705.85 1388.47,687.184 1388.5,668.5C 1389.54,619.826 1390.87,571.16 1392.5,522.5C 1393.53,491.616 1390.03,461.282 1382,431.5C 1370.78,397.954 1347.45,380.954 1312,380.5C 1275.82,381.089 1250.82,398.089 1237,431.5C 1229.99,450.217 1225.66,469.55 1224,489.5C 1222.61,508.14 1221.78,526.807 1221.5,545.5C 1222.75,598.999 1222.75,652.499 1221.5,706C 1219.29,736.559 1223.79,766.059 1235,794.5C 1245.58,817.986 1256.41,841.319 1267.5,864.5C 1214.16,865.287 1160.83,866.287 1107.5,867.5C 1100.5,867.167 1093.5,866.833 1086.5,866.5C 1065.27,841.358 1052.1,812.358 1047,779.5C 1041.72,747.725 1039.22,715.725 1039.5,683.5C 1040.28,647.821 1041.44,612.154 1043,576.5C 1043.67,549.5 1043.67,522.5 1043,495.5C 1042.11,472.151 1037.78,449.484 1030,427.5C 1013.48,390.483 984.981,374.65 944.5,380C 925.018,385.48 910.184,396.98 900,414.5C 887.8,437.435 879.8,461.768 876,487.5C 869.329,532.578 866.162,577.911 866.5,623.5C 868.13,690.844 870.13,758.177 872.5,825.5C 872.313,839.199 871.646,852.866 870.5,866.5C 812.164,867.08 753.83,867.747 695.5,868.5C 693.721,655.17 692.387,441.837 691.5,228.5C 746.833,227.608 802.166,227.108 857.5,227C 859.041,228.579 860.208,230.413 861,232.5C 862.01,247.817 862.677,263.151 863,278.5C 898.277,240.115 942.11,219.282 994.5,216C 1026,213.3 1057,215.966 1087.5,224C 1107.63,230.393 1125.63,240.393 1141.5,254C 1156.64,268.067 1171.98,281.901 1187.5,295.5C 1206.02,279.812 1224.69,264.312 1243.5,249C 1275.98,225.297 1312.31,213.464 1352.5,213.5 Z"/></g>
<g><path style="opacity:0.996" fill="#00448c" d="M 3499.5,226.5 C 3499.5,227.833 3499.5,229.167 3499.5,230.5C 3429.74,442.293 3360.24,654.293 3291,866.5C 3275.55,867.825 3259.89,868.492 3244,868.5C 3192.83,868.123 3141.66,867.456 3090.5,866.5C 3080.12,843.192 3070.62,819.526 3062,795.5C 2998.66,619.826 2940.33,442.493 2887,263.5C 2883.85,251.56 2881.01,239.56 2878.5,227.5C 2941.83,226.5 3005.16,226.167 3068.5,226.5C 3107.66,365.148 3146.83,503.814 3186,642.5C 3227.12,505.334 3267.62,368.001 3307.5,230.5C 3371.49,228.969 3435.49,227.636 3499.5,226.5 Z"/></g>
<g><path style="opacity:0.999" fill="#263386" d="M 432.5,282.5 C 432.833,282.5 433.167,282.5 433.5,282.5C 436.779,282.305 438.779,283.805 439.5,287C 437.981,289.578 437.148,292.411 437,295.5C 436.5,296 436,296.5 435.5,297C 432.518,297.498 429.518,297.665 426.5,297.5C 426.244,295.208 426.577,293.041 427.5,291C 426.833,290.667 426.167,290.333 425.5,290C 426.013,285.657 428.346,283.157 432.5,282.5 Z"/></g>
</svg>
