<?xml version="1.0" encoding="UTF-8"?>
<!DOCTYPE svg PUBLIC "-//W3C//DTD SVG 1.1//EN" "http://www.w3.org/Graphics/SVG/1.1/DTD/svg11.dtd">
<svg xmlns="http://www.w3.org/2000/svg" version="1.1" width="1200px" height="456px" style="shape-rendering:geometricPrecision; text-rendering:geometricPrecision; image-rendering:optimizeQuality; fill-rule:evenodd; clip-rule:evenodd" xmlns:xlink="http://www.w3.org/1999/xlink">
<g><path style="opacity:0.977" fill="#020100" d="M 246.5,6.5 C 533.186,6.00706 819.853,6.50706 1106.5,8C 1161.66,17.1728 1189.66,49.8395 1190.5,106C 1187.8,150.286 1177.64,192.786 1160,233.5C 1133.06,298.911 1094.56,356.411 1044.5,406C 1026.19,422.993 1005.19,435.66 981.5,444C 976.9,445.317 972.234,446.317 967.5,447C 672.833,447.667 378.167,447.667 83.5,447C 52.1966,440.7 31.03,422.533 20,392.5C 12.5217,370.006 10.5217,347.006 14,323.5C 20.5716,283.453 32.5716,245.119 50,208.5C 71.5027,162.116 98.5027,119.45 131,80.5C 148.705,60.4542 168.538,42.9542 190.5,28C 207.788,16.9642 226.454,9.79757 246.5,6.5 Z"/></g>
<g><path style="opacity:1" fill="#fbb812" d="M 251.5,23.5 C 534.834,23.3333 818.167,23.5 1101.5,24C 1143.53,30.7011 1167.37,55.2011 1173,97.5C 1174.31,125.292 1170.31,152.292 1161,178.5C 1138.44,251.65 1102.44,316.984 1053,374.5C 1037.57,390.61 1020.4,404.443 1001.5,416C 986.732,423.812 971.065,428.812 954.5,431C 667.167,431.667 379.833,431.667 92.5,431C 58.6851,425.519 38.1851,406.019 31,372.5C 28.6488,353.407 29.3155,334.407 33,315.5C 53.7035,229.747 93.0368,154.081 151,88.5C 171.985,64.9434 196.485,46.1101 224.5,32C 233.4,28.4198 242.4,25.5864 251.5,23.5 Z"/></g>
<g><path style="opacity:1" fill="#010000" d="M 1024.5,90.5 C 1061.67,90.1682 1098.67,90.5015 1135.5,91.5C 1099.06,129.771 1062.4,167.938 1025.5,206C 1007.83,206.667 990.167,206.667 972.5,206C 979.872,191.012 983.038,175.179 982,158.5C 979.834,145.332 972.334,136.832 959.5,133C 938.724,128.922 919.39,132.589 901.5,144C 863.677,171.116 838.843,207.282 827,252.5C 824.284,271.201 828.284,288.201 839,303.5C 851.493,314.052 865.993,318.719 882.5,317.5C 926.22,315.306 962.22,297.639 990.5,264.5C 1001.73,273.606 1012.73,282.94 1023.5,292.5C 1003.9,316.576 979.564,334.41 950.5,346C 899.003,365.75 846.337,369.75 792.5,358C 762.956,349.656 740.122,332.49 724,306.5C 715.013,289.228 711.013,270.894 712,251.5C 719.524,183.252 754.357,134.752 816.5,106C 858.174,86.9989 901.841,79.3322 947.5,83C 972.333,85.8351 993.499,96.0018 1011,113.5C 1015.51,105.806 1020.01,98.1391 1024.5,90.5 Z"/></g>
<g><path style="opacity:1" fill="#020100" d="M 670.5,82.5 C 683.364,81.2848 694.197,85.2848 703,94.5C 711.996,109.208 709.829,122.041 696.5,133C 681.455,143.18 665.122,146.18 647.5,142C 633.224,134.602 628.391,123.102 633,107.5C 642.121,94.0278 654.621,85.6945 670.5,82.5 Z"/></g>
<g><path style="opacity:1" fill="#000000" d="M 239.5,88.5 C 319.501,88.3333 399.501,88.5 479.5,89C 500.091,91.8783 517.591,100.712 532,115.5C 539.35,124.567 542.016,134.9 540,146.5C 536.19,166.624 526.357,183.124 510.5,196C 490.4,210.319 468.066,219.485 443.5,223.5C 459.754,231.587 472.254,243.587 481,259.5C 485.09,274.303 483.09,288.303 475,301.5C 462.24,322.594 444.74,338.428 422.5,349C 410.917,353.562 398.917,356.229 386.5,357C 292.5,357.667 198.5,357.667 104.5,357C 149.91,267.68 194.91,178.18 239.5,88.5 Z"/></g>
<g><path style="opacity:1" fill="#87630a" d="M 1024.5,90.5 C 1061.67,89.1696 1099,89.1696 1136.5,90.5C 1136.38,91.1067 1136.04,91.44 1135.5,91.5C 1098.67,90.5015 1061.67,90.1682 1024.5,90.5 Z"/></g>
<g><path style="opacity:1" fill="#fab712" d="M 343.5,132.5 C 366.544,132.053 389.544,132.553 412.5,134C 432.543,140.799 436.043,152.632 423,169.5C 415.184,179.644 405.018,186.144 392.5,189C 362.54,190.627 332.54,190.96 302.5,190C 316.386,170.954 330.052,151.788 343.5,132.5 Z"/></g>
<g><path style="opacity:1" fill="#a97b0d" d="M 608.5,159.5 C 633.337,158.171 658.337,158.171 683.5,159.5C 683.376,160.107 683.043,160.44 682.5,160.5C 658.006,159.502 633.339,159.169 608.5,159.5 Z"/></g>
<g><path style="opacity:1" fill="#000000" d="M 608.5,159.5 C 633.339,159.169 658.006,159.502 682.5,160.5C 659.301,226.098 636.301,291.765 613.5,357.5C 571.663,357.832 529.997,357.499 488.5,356.5C 528.5,290.833 568.5,225.167 608.5,159.5 Z"/></g>
<g><path style="opacity:1" fill="#fbb812" d="M 269.5,235.5 C 294.169,235.333 318.836,235.5 343.5,236C 352.996,237.161 359.163,242.328 362,251.5C 363.923,264.979 360.59,276.979 352,287.5C 342.431,300.042 329.931,308.209 314.5,312C 281.201,313.624 247.867,313.957 214.5,313C 233.053,287.287 251.386,261.454 269.5,235.5 Z"/></g>
<g><path style="opacity:1" fill="#dba010" d="M 488.5,356.5 C 529.997,357.499 571.663,357.832 613.5,357.5C 571.665,358.831 529.665,358.831 487.5,357.5C 487.624,356.893 487.957,356.56 488.5,356.5 Z"/></g>
</svg>
