<?xml version="1.0" encoding="UTF-8"?>
<!DOCTYPE svg PUBLIC "-//W3C//DTD SVG 1.1//EN" "http://www.w3.org/Graphics/SVG/1.1/DTD/svg11.dtd">
<svg xmlns="http://www.w3.org/2000/svg" version="1.1" width="2560px" height="803px" style="shape-rendering:geometricPrecision; text-rendering:geometricPrecision; image-rendering:optimizeQuality; fill-rule:evenodd; clip-rule:evenodd" xmlns:xlink="http://www.w3.org/1999/xlink">
<g><path style="opacity:0.992" fill="#e61c2a" d="M 498.5,-0.5 C 509.5,-0.5 520.5,-0.5 531.5,-0.5C 565.897,6.90621 584.564,28.2395 587.5,63.5C 582.867,96.9324 568.534,125.432 544.5,149C 536.396,156.301 526.896,160.467 516,161.5C 500.419,159.407 492.919,150.407 493.5,134.5C 495.627,108.736 508.293,90.2363 531.5,79C 539.084,77.0693 546.751,75.5693 554.5,74.5C 559.486,63.4584 558.153,53.2918 550.5,44C 539.614,37.4652 527.947,35.7985 515.5,39C 494.241,43.8639 474.241,51.8639 455.5,63C 421.929,83.5581 390.929,107.558 362.5,135C 282.025,212.78 216.192,301.28 165,400.5C 140.603,449.357 123.603,500.69 114,554.5C 107.967,590.443 111.301,625.443 124,659.5C 143.263,700.733 175.43,725.566 220.5,734C 256.807,739.83 293.14,739.83 329.5,734C 349.93,730.873 370.263,727.206 390.5,723C 455.907,707.648 521.24,691.982 586.5,676C 642.796,662.673 699.796,654.006 757.5,650C 831.851,643.556 902.184,657.222 968.5,691C 1017.55,718.693 1062.05,752.527 1102,792.5C 1104.81,795.464 1106.98,798.798 1108.5,802.5C 1107.83,802.5 1107.17,802.5 1106.5,802.5C 1038.99,756.123 964.328,737.29 882.5,746C 850.247,753.436 824.58,770.603 805.5,797.5C 781.454,758.445 747.121,732.945 702.5,721C 676.435,714.263 649.935,710.763 623,710.5C 579.756,711.676 536.922,716.51 494.5,725C 435.986,737.879 377.652,751.545 319.5,766C 279.254,776.014 238.421,781.514 197,782.5C 148.906,783.943 105.406,770.776 66.5,743C 26.007,708.515 3.67371,664.682 -0.5,611.5C -0.5,594.5 -0.5,577.5 -0.5,560.5C 7.94567,479.663 33.1123,404.33 75,334.5C 142.752,223.079 231.252,131.579 340.5,60C 375.973,37.2655 413.973,19.9322 454.5,8C 469.122,4.17452 483.789,1.34119 498.5,-0.5 Z"/></g>
<g><path style="opacity:0.986" fill="#e61c2a" d="M 2559.5,0.5 C 2559.5,1.5 2559.5,2.5 2559.5,3.5C 2514.43,85.0685 2449.76,145.902 2365.5,186C 2311.75,210.536 2255.75,217.869 2197.5,208C 2196.69,207.692 2196.03,207.192 2195.5,206.5C 2213.87,183.293 2233.53,161.126 2254.5,140C 2310.33,141.834 2363.33,130.5 2413.5,106C 2468.38,79.3961 2517.05,44.2295 2559.5,0.5 Z"/></g>
<g><path style="opacity:0.99" fill="#e61c2a" d="M 1721.5,3.5 C 1744.38,0.979985 1766.38,4.14665 1787.5,13C 1793.25,16.2519 1798.59,20.0853 1803.5,24.5C 1855.33,3.57744 1908.67,-1.58922 1963.5,9C 1986.82,15.1077 2009.16,23.7743 2030.5,35C 2063.49,53.4951 2096.16,72.4951 2128.5,92C 2139.17,97.6667 2149.83,103.333 2160.5,109C 2139.32,129.683 2118.65,150.85 2098.5,172.5C 2083.45,164.935 2068.78,156.768 2054.5,148C 2022.34,126.751 1990,105.751 1957.5,85C 1936.38,73.0699 1914.38,63.0699 1891.5,55C 1868,47.3248 1844.33,46.6581 1820.5,53C 1822.81,90.4729 1815.97,126.306 1800,160.5C 1778.67,206.684 1749.83,247.517 1713.5,283C 1697.95,297.281 1680.28,308.281 1660.5,316C 1643.98,322.298 1627.65,321.964 1611.5,315C 1597.25,305.634 1590.58,292.3 1591.5,275C 1592.5,255.185 1597.33,236.351 1606,218.5C 1623.48,181.85 1646.15,148.85 1674,119.5C 1704.91,89.5726 1738.41,63.0726 1774.5,40C 1763,35.7892 1751.33,35.4559 1739.5,39C 1721.28,43.7748 1703.95,50.7748 1687.5,60C 1625.24,97.8863 1569.07,143.72 1519,197.5C 1442.74,279.132 1379.74,370.132 1330,470.5C 1308.03,518.089 1292.69,567.756 1284,619.5C 1280.32,644.671 1283.98,668.671 1295,691.5C 1305.58,708.217 1320.74,718.051 1340.5,721C 1361.93,723.309 1381.93,718.976 1400.5,708C 1431.32,688.52 1458.49,664.687 1482,636.5C 1516.86,597.142 1542.19,552.142 1558,501.5C 1563.6,484.231 1565.6,466.564 1564,448.5C 1560.43,431.618 1550.27,425.452 1533.5,430C 1523.47,433.182 1514.47,438.182 1506.5,445C 1485.06,466.365 1469.56,491.531 1460,520.5C 1456.03,532.035 1452.53,543.701 1449.5,555.5C 1409.16,574.766 1373.66,600.766 1343,633.5C 1345.08,603.503 1351.75,574.503 1363,546.5C 1375.96,509.552 1395.29,476.552 1421,447.5C 1443.82,423.689 1470.65,405.856 1501.5,394C 1519.9,386.77 1538.56,385.77 1557.5,391C 1574.83,399.141 1585.33,412.641 1589,431.5C 1592.33,451.607 1591.66,471.607 1587,491.5C 1576.57,534.347 1559.57,574.347 1536,611.5C 1506.25,658.928 1469.08,699.762 1424.5,734C 1400.12,751.859 1373.45,765.526 1344.5,775C 1319.6,782.438 1294.27,784.438 1268.5,781C 1227.05,771.547 1198.55,747.047 1183,707.5C 1172.1,675.643 1168.77,642.976 1173,609.5C 1177.97,571.596 1187.63,534.929 1202,499.5C 1228.2,438.405 1260.53,381.072 1299,327.5C 1349.92,254.563 1409.42,189.063 1477.5,131C 1525.63,90.5948 1578.3,56.9281 1635.5,30C 1663.13,17.398 1691.8,8.56468 1721.5,3.5 Z M 1790.5,62.5 C 1791.93,62.8807 1792.76,63.8807 1793,65.5C 1794.03,84.2439 1791.7,102.577 1786,120.5C 1764.92,188.547 1725.42,243.047 1667.5,284C 1661.07,287.549 1654.4,290.549 1647.5,293C 1628.45,297.326 1618.45,289.826 1617.5,270.5C 1619.75,250.903 1625.92,232.57 1636,215.5C 1666.39,163.635 1705.89,119.802 1754.5,84C 1766.07,76.0522 1778.07,68.8855 1790.5,62.5 Z"/></g>
<g><path style="opacity:0.99" fill="#e61c2a" d="M 2341.5,9.5 C 2352.44,8.87825 2362.78,11.0449 2372.5,16C 2378.12,20.3945 2381.28,26.2279 2382,33.5C 2382.31,52.5962 2378.64,70.9296 2371,88.5C 2367.61,96.9507 2363.94,105.284 2360,113.5C 2349.27,117.393 2338.43,120.059 2327.5,121.5C 2340.99,99.1865 2350.66,75.3532 2356.5,50C 2356.96,44.7357 2354.62,41.569 2349.5,40.5C 2335.98,45.2564 2323.65,52.0897 2312.5,61C 2269,97.8333 2228.83,138 2192,181.5C 2114.81,275.396 2048.81,376.729 1994,485.5C 2010.12,475.191 2025.62,464.024 2040.5,452C 2106.63,396.201 2167.8,335.367 2224,269.5C 2236.19,254.94 2248.03,240.107 2259.5,225C 2269.85,223.346 2280.18,222.513 2290.5,222.5C 2241.22,288.312 2186.55,349.812 2126.5,407C 2077.34,455.856 2023.84,499.023 1966,536.5C 1950.46,568.257 1937.12,600.924 1926,634.5C 1919.05,653.933 1915.71,673.933 1916,694.5C 1919.24,711.026 1928.41,715.526 1943.5,708C 1955.65,699.666 1966.48,689.833 1976,678.5C 1983,669.5 1990,660.5 1997,651.5C 2033.21,595.738 2071.88,541.738 2113,489.5C 2134.23,464.931 2157.4,442.431 2182.5,422C 2199.42,408.873 2218.08,398.873 2238.5,392C 2268.9,380.969 2292.9,388.803 2310.5,415.5C 2314.94,409.458 2319.28,403.292 2323.5,397C 2350.5,396.5 2377.5,396.333 2404.5,396.5C 2350.8,489.561 2296.3,582.228 2241,674.5C 2235.94,682.514 2232.77,691.181 2231.5,700.5C 2230.64,705.144 2232.48,707.811 2237,708.5C 2245.87,706.149 2254.04,702.315 2261.5,697C 2280.67,681.833 2297.83,664.667 2313,645.5C 2329.27,625.231 2344.77,604.398 2359.5,583C 2369.18,582.168 2378.85,582.335 2388.5,583.5C 2353.7,637.833 2313.03,687.666 2266.5,733C 2246.62,751.878 2224.29,767.211 2199.5,779C 2149.73,793.907 2127.89,775.407 2134,723.5C 2112.99,745.182 2089.16,763.016 2062.5,777C 2045.88,785.367 2028.88,786.367 2011.5,780C 1996.54,772.36 1987.71,760.194 1985,743.5C 1984.28,738.02 1983.78,732.52 1983.5,727C 1984.08,720.127 1984.58,713.294 1985,706.5C 1967.06,728.112 1946.89,747.279 1924.5,764C 1913.84,771.833 1902.17,777.833 1889.5,782C 1869.25,786.622 1851.42,782.122 1836,768.5C 1828.95,759.723 1824.61,749.723 1823,738.5C 1820.57,709.959 1823.57,681.959 1832,654.5C 1840.07,627.113 1849.24,600.113 1859.5,573.5C 1859,573.167 1858.5,572.833 1858,572.5C 1843.95,575.542 1829.78,577.709 1815.5,579C 1795.43,615.656 1772.26,650.156 1746,682.5C 1716.75,715.1 1683.92,743.267 1647.5,767C 1630.86,777.159 1612.86,782.992 1593.5,784.5C 1565.04,782.549 1547.88,767.549 1542,739.5C 1538.97,715.428 1540.97,691.761 1548,668.5C 1559.79,628.267 1577.45,590.934 1601,556.5C 1633.44,507.715 1672.61,464.881 1718.5,428C 1736.92,413.783 1756.92,402.116 1778.5,393C 1794.04,386.742 1810.04,385.075 1826.5,388C 1842.07,391.034 1852.9,399.867 1859,414.5C 1863.77,430.672 1864.44,447.005 1861,463.5C 1854.74,494.358 1844.24,523.692 1829.5,551.5C 1844.88,552.323 1859.55,549.323 1873.5,542.5C 1918.24,449.726 1970.74,362.06 2031,279.5C 2076.8,221.68 2126.3,166.847 2179.5,115C 2206.02,89.7606 2234.02,66.4273 2263.5,45C 2280.11,33.5267 2297.77,23.86 2316.5,16C 2324.77,13.0655 2333.11,10.8989 2341.5,9.5 Z M 1811.5,423.5 C 1825.71,425.205 1833.87,433.205 1836,447.5C 1837.35,470.751 1832.69,492.751 1822,513.5C 1816.8,524.732 1810.97,535.565 1804.5,546C 1796.49,546.003 1789.15,543.669 1782.5,539C 1750.78,518.849 1743.28,492.015 1760,458.5C 1772.8,440.16 1789.97,428.493 1811.5,423.5 Z M 2275.5,429.5 C 2283.14,428.428 2288.98,431.095 2293,437.5C 2293.67,439.5 2293.67,441.5 2293,443.5C 2260.19,500.621 2226.19,556.954 2191,612.5C 2177.39,632.445 2163.39,652.111 2149,671.5C 2138.76,683.742 2127.26,694.575 2114.5,704C 2107.29,708.033 2099.96,708.367 2092.5,705C 2087.75,700.751 2085.75,695.417 2086.5,689C 2086.98,679.895 2088.82,671.061 2092,662.5C 2124.04,588.376 2168.04,522.376 2224,464.5C 2235.68,452.81 2248.52,442.644 2262.5,434C 2266.85,432.164 2271.18,430.664 2275.5,429.5 Z M 1720.5,514.5 C 1733.23,533.397 1749.23,549.23 1768.5,562C 1774.68,565.588 1781.01,568.922 1787.5,572C 1788.52,573.049 1788.68,574.216 1788,575.5C 1767.68,612.297 1742.84,645.797 1713.5,676C 1702.73,685.885 1691.06,694.552 1678.5,702C 1654.67,711.422 1641.34,703.422 1638.5,678C 1640.54,657.533 1646.04,638.033 1655,619.5C 1661.49,605.851 1668.49,592.518 1676,579.5C 1690.36,557.428 1705.19,535.762 1720.5,514.5 Z"/></g>
<g><path style="opacity:0.99" fill="#e61c2a" d="M 535.5,191.5 C 576.49,190.45 597.156,210.284 597.5,251C 595.732,282.475 587.732,312.308 573.5,340.5C 574.333,340.833 575.167,341.167 576,341.5C 595.539,335.98 613.373,327.147 629.5,315C 651.726,297.113 673.059,278.113 693.5,258C 713.079,240.082 734.079,224.082 756.5,210C 777.154,197.587 799.488,191.92 823.5,193C 863.804,199.655 880.304,223.155 873,263.5C 866.008,289.457 852.841,311.623 833.5,330C 826.889,335.221 819.389,338.387 811,339.5C 789.319,334.477 782.653,321.477 791,300.5C 800.682,274.859 819.016,260.859 846,258.5C 851.01,242.181 845.01,233.514 828,232.5C 819.115,233.189 810.948,236.022 803.5,241C 764.915,268.251 732.415,301.418 706,340.5C 684.347,372.884 666.013,407.217 651,443.5C 644.803,459.288 640.97,475.621 639.5,492.5C 640.428,520.595 654.762,533.428 682.5,531C 697.645,527.26 711.312,520.593 723.5,511C 751.564,488.605 777.397,463.772 801,436.5C 834.574,394.348 867.908,352.015 901,309.5C 925.534,280.632 952.368,254.132 981.5,230C 1000.27,214.78 1021.27,203.446 1044.5,196C 1070.2,187.882 1091.37,194.382 1108,215.5C 1110.96,211.084 1113.79,206.584 1116.5,202C 1143.84,201.167 1171.17,201.333 1198.5,202.5C 1143.17,295.832 1087.34,388.832 1031,481.5C 1028.6,486.689 1026.6,492.023 1025,497.5C 1022.4,509.569 1026.9,513.402 1038.5,509C 1049.04,503.567 1058.7,496.901 1067.5,489C 1097.72,459.454 1125.72,428.12 1151.5,395C 1161.18,394.168 1170.85,394.335 1180.5,395.5C 1145.82,445.039 1106.82,491.205 1063.5,534C 1042.46,554.356 1018.8,571.023 992.5,584C 977.381,590.38 962.047,591.047 946.5,586C 936.586,580.741 930.419,572.575 928,561.5C 926.365,551.513 926.032,541.513 927,531.5C 905.394,556.221 879.228,574.388 848.5,586C 799.035,598.187 776.202,579.02 780,528.5C 781.745,515.535 784.412,502.868 788,490.5C 770.095,507.742 751.595,524.242 732.5,540C 713.852,554.666 693.852,567.332 672.5,578C 651.016,588.914 628.349,592.914 604.5,590C 569.867,582.035 549.701,560.535 544,525.5C 541.889,501.945 544.555,478.945 552,456.5C 555.444,445.614 559.444,434.947 564,424.5C 574.165,403.834 584.498,383.5 595,363.5C 582.329,367.376 569.496,370.71 556.5,373.5C 535.372,408.119 512.872,441.786 489,474.5C 458.881,510.294 424.715,541.46 386.5,568C 369.122,579.522 350.122,586.855 329.5,590C 292.485,588.658 271.651,569.492 267,532.5C 265.378,512.14 267.378,492.14 273,472.5C 280.552,445.841 291.219,420.507 305,396.5C 342.315,331.833 390.482,276.333 449.5,230C 469.089,215.537 490.422,204.204 513.5,196C 520.905,194.16 528.239,192.66 535.5,191.5 Z M 541.5,229.5 C 553.684,229.344 561.851,235.011 566,246.5C 569.83,266.371 567.83,285.704 560,304.5C 555.216,316.736 549.883,328.736 544,340.5C 542.164,342.708 539.831,344.042 537,344.5C 517.964,341.155 502.298,332.155 490,317.5C 479.834,300.083 480.168,282.749 491,265.5C 503.297,247.021 520.131,235.021 541.5,229.5 Z M 1073.5,232.5 C 1081.65,231.257 1087.48,234.257 1091,241.5C 1091.67,242.5 1091.67,243.5 1091,244.5C 1054.26,308.33 1016.26,371.33 977,433.5C 960.432,458.081 941.599,480.914 920.5,502C 914.664,506.498 908.331,510.164 901.5,513C 888.362,515.514 881.362,510.181 880.5,497C 881.266,487.505 883.432,478.339 887,469.5C 901.661,435.166 919.661,402.832 941,372.5C 967.522,336.307 995.189,300.973 1024,266.5C 1034.72,254.771 1046.89,244.937 1060.5,237C 1064.85,235.164 1069.18,233.664 1073.5,232.5 Z M 452.5,316.5 C 463.797,336.511 480.13,351.011 501.5,360C 509.388,363.444 517.388,366.61 525.5,369.5C 526.583,370.365 526.749,371.365 526,372.5C 506.702,405.433 484.702,436.433 460,465.5C 444.758,483.092 426.925,497.258 406.5,508C 388.51,514.255 376.677,508.421 371,490.5C 369.741,472.457 372.741,455.123 380,438.5C 387.672,419.49 396.672,401.157 407,383.5C 421.997,361.012 437.163,338.679 452.5,316.5 Z"/></g>
<g><path style="opacity:0.99" fill="#e61d2b" d="M 1255.5,202.5 C 1281.5,202.333 1307.5,202.5 1333.5,203C 1319.08,226.502 1304.42,249.835 1289.5,273C 1263.84,273.5 1238.17,273.667 1212.5,273.5C 1226.05,249.406 1240.38,225.74 1255.5,202.5 Z"/></g>
</svg>
