<?xml version="1.0" encoding="utf-8"?>
<!-- Generator: Adobe Illustrator 27.3.1, SVG Export Plug-In . SVG Version: 6.00 Build 0)  -->
<svg version="1.1" id="Camada_1" xmlns="http://www.w3.org/2000/svg" xmlns:xlink="http://www.w3.org/1999/xlink" x="0px" y="0px"
	 viewBox="0 0 842 595" style="enable-background:new 0 0 842 595;" xml:space="preserve">
<style type="text/css">
	.st0{fill-rule:evenodd;clip-rule:evenodd;fill:#0F2851;}
	.st1{fill-rule:evenodd;clip-rule:evenodd;fill:#0169A6;}
</style>
<g>
	<path class="st0" d="M92.58,303.56V199.5h67.85v28.23h-31.37v12.08h28.39v26.63h-28.39v37.11H92.58L92.58,303.56z M223.58,271.39
		c5.13,0,9.25-1.8,12.37-5.36c3.12-3.59,4.68-8.32,4.68-14.26c0-5.97-1.56-10.75-4.68-14.38c-3.12-3.61-7.24-5.43-12.37-5.43
		c-5.16,0-9.3,1.82-12.44,5.48c-3.15,3.64-4.71,8.42-4.71,14.34c0,5.94,1.56,10.67,4.71,14.26
		C214.28,269.6,218.42,271.39,223.58,271.39L223.58,271.39z M277.83,251.74c0,7.62-1.33,14.72-3.95,21.27
		c-2.63,6.57-6.48,12.44-11.57,17.61c-5.09,5.05-10.93,8.95-17.58,11.64c-6.62,2.69-13.67,4.05-21.15,4.05
		c-7.59,0-14.67-1.36-21.29-4.05c-6.6-2.69-12.47-6.62-17.6-11.79c-5.04-5.02-8.85-10.82-11.43-17.34
		c-2.58-6.55-3.88-13.68-3.88-21.39c0-7.71,1.3-14.87,3.88-21.47c2.58-6.57,6.39-12.4,11.43-17.42c5.09-5.12,10.93-9,17.53-11.67
		c6.62-2.69,13.72-4.03,21.36-4.03c7.62,0,14.72,1.33,21.34,4.03c6.6,2.67,12.47,6.55,17.6,11.67c4.99,5.07,8.78,10.92,11.38,17.49
		C276.53,236.95,277.83,244.08,277.83,251.74L277.83,251.74z M328.96,226.28v20.38h5.68c3.45,0,6.13-0.87,8-2.6
		c1.87-1.75,2.79-4.22,2.79-7.45c0-3.32-0.92-5.87-2.79-7.67c-1.87-1.77-4.54-2.67-8-2.67H328.96L328.96,226.28z M293.19,303.56
		V199.5h45.87c13.3,0,23.45,3.01,30.47,9.02c7.03,6.02,10.53,14.7,10.53,26.03c0,7.4-1.77,13.49-5.3,18.27
		c-3.53,4.8-8.3,7.59-14.31,8.39l27.14,42.35h-40.91l-17.72-34.32v34.32H293.19L293.19,303.56z M407.86,303.56h36.48v-70h20.3V199.5
		h-77.08v34.06h20.3V303.56z"/>
	<path class="st1" d="M458.2,303.56l27.35-104.21h20.65l-22.77,86.74h51.26l-4.56,17.46H458.2L458.2,303.56z M543.45,303.56
		l27.35-104.21h74.46l-4.56,17.46h-53.83l-6.36,23.58h52.17l-4.56,17.46h-52.33l-7.65,28.23h58.42l-4.56,17.46H543.45L543.45,303.56
		z M687.6,303.56h-22.1l-11.66-104.21h20.51l7.96,78.88l46.41-78.88h20.51L687.6,303.56z"/>
	<rect x="92.58" y="324.73" class="st0" width="656.65" height="9.57"/>
	<rect x="92.58" y="334.29" class="st1" width="656.65" height="9.57"/>
	<path class="st0" d="M92.58,396.22v-32.88h18.66v4.55H98.01v8.23h13.24v4.69H98.01v10.62h13.24v4.78H92.58L92.58,396.22z
		 M98.76,360.12l4.35-6.12h5.14l-6.68,6.12H98.76L98.76,360.12z M158.85,379.99c-0.06-0.25-0.16-0.96-0.3-2.11
		c-0.12-0.96-0.23-1.76-0.32-2.38c-0.14,0.75-0.34,1.5-0.58,2.25c-0.25,0.75-0.57,1.51-0.95,2.29l-8.75,17.52l-8.75-17.88
		c-0.37-0.74-0.69-1.44-0.95-2.13c-0.26-0.69-0.5-1.37-0.69-2.05c-0.02,0.69-0.07,1.41-0.17,2.17c-0.1,0.76-0.25,1.55-0.44,2.37
		l-3.59,16.19h-5l7.9-34.26l9.87,20.75c0.15,0.32,0.38,0.87,0.69,1.63c0.31,0.77,0.69,1.71,1.13,2.83c0.32-0.94,0.83-2.14,1.51-3.59
		c0.18-0.39,0.32-0.69,0.41-0.9l9.64-20.73l8.08,34.26h-5.05L158.85,379.99L158.85,379.99z M171.8,363.34h5.38v19.97
		c0,2.96,0.69,5.19,2.09,6.68c1.4,1.49,3.48,2.24,6.25,2.24c2.75,0,4.82-0.74,6.22-2.24c1.4-1.49,2.09-3.72,2.09-6.68v-19.97h5.42
		v20.46c0,4.45-1.14,7.78-3.42,9.99c-2.28,2.21-5.73,3.31-10.33,3.31c-4.6,0-8.03-1.1-10.3-3.3c-2.27-2.2-3.41-5.53-3.41-10V363.34
		L171.8,363.34z M206.84,396.22v-32.88h5.43v32.88H206.84L206.84,396.22z M230.88,367.89v28.33h-5.43v-28.33h-8.89v-4.55h23.15v4.55
		H230.88L230.88,367.89z M270.83,379.85c0-1.66-0.31-3.24-0.93-4.74c-0.62-1.49-1.5-2.83-2.66-3.99c-1.13-1.16-2.43-2.04-3.91-2.66
		c-1.49-0.62-3.06-0.94-4.69-0.94c-1.64,0-3.21,0.31-4.7,0.92c-1.48,0.61-2.81,1.5-3.96,2.68c-1.15,1.15-2.04,2.48-2.65,3.97
		c-0.61,1.49-0.91,3.08-0.91,4.76c0,1.66,0.3,3.23,0.91,4.71c0.61,1.48,1.5,2.81,2.65,3.97c1.15,1.17,2.47,2.06,3.95,2.67
		c1.47,0.61,3.05,0.92,4.71,0.92c1.63,0,3.17-0.31,4.65-0.92c1.47-0.61,2.79-1.5,3.96-2.67c1.15-1.17,2.04-2.49,2.66-3.98
		C270.52,383.06,270.83,381.5,270.83,379.85L270.83,379.85z M276.49,379.85c0,2.34-0.44,4.55-1.33,6.62
		c-0.9,2.08-2.19,3.94-3.9,5.57c-1.71,1.63-3.66,2.88-5.82,3.75c-2.16,0.87-4.43,1.3-6.8,1.3c-2.41,0-4.7-0.44-6.89-1.31
		c-2.18-0.88-4.11-2.12-5.78-3.74c-1.71-1.63-3-3.48-3.88-5.55c-0.88-2.06-1.33-4.28-1.33-6.65c0-2.35,0.44-4.57,1.33-6.65
		c0.88-2.08,2.17-3.95,3.88-5.6c1.71-1.63,3.64-2.87,5.8-3.73c2.16-0.85,4.45-1.28,6.87-1.28c2.4,0,4.68,0.43,6.84,1.28
		c2.15,0.85,4.08,2.09,5.78,3.73c1.71,1.66,3,3.54,3.9,5.63C276.04,375.33,276.49,377.53,276.49,379.85L276.49,379.85z
		 M324.1,379.99c-0.06-0.25-0.16-0.96-0.3-2.11c-0.12-0.96-0.23-1.76-0.32-2.38c-0.14,0.75-0.33,1.5-0.58,2.25
		c-0.25,0.75-0.57,1.51-0.95,2.29l-8.75,17.52l-8.75-17.88c-0.37-0.74-0.69-1.44-0.95-2.13c-0.26-0.69-0.5-1.37-0.69-2.05
		c-0.02,0.69-0.07,1.41-0.17,2.17c-0.1,0.76-0.25,1.55-0.44,2.37l-3.59,16.19h-5l7.9-34.26l9.87,20.75
		c0.15,0.32,0.38,0.87,0.69,1.63c0.31,0.77,0.69,1.71,1.13,2.83c0.32-0.94,0.83-2.14,1.51-3.59c0.18-0.39,0.32-0.69,0.41-0.9
		l9.64-20.73l8.08,34.26h-5.05L324.1,379.99L324.1,379.99z M344.25,383.3h9.32l-3.43-7.5c-0.19-0.48-0.41-1.03-0.62-1.65
		c-0.21-0.62-0.43-1.31-0.64-2.08c-0.18,0.72-0.37,1.39-0.58,2.01c-0.2,0.62-0.41,1.2-0.62,1.72L344.25,383.3L344.25,383.3z
		 M359.27,396.22h5.74l-16.17-34.17l-16.19,34.17h5.71l3.88-8.46h13.25L359.27,396.22L359.27,396.22z M368.25,396.22v-32.88h5.43
		v32.88H368.25L368.25,396.22z M379.57,389.64l4.33-1.97c0.41,1.46,1.17,2.58,2.27,3.35c1.09,0.77,2.49,1.16,4.2,1.16
		c1.62,0,2.9-0.44,3.86-1.33c0.95-0.88,1.43-2.06,1.43-3.54c0-1.93-1.63-3.66-4.9-5.17c-0.46-0.22-0.81-0.39-1.05-0.49
		c-3.69-1.77-6.14-3.36-7.37-4.8c-1.22-1.43-1.84-3.18-1.84-5.24c0-2.68,0.93-4.85,2.77-6.52c1.85-1.66,4.28-2.49,7.28-2.49
		c2.46,0,4.53,0.47,6.19,1.4c1.66,0.94,2.81,2.28,3.45,4.02l-4.24,2.16c-0.67-1.03-1.4-1.79-2.21-2.27
		c-0.8-0.48-1.72-0.72-2.76-0.72c-1.46,0-2.63,0.38-3.48,1.13c-0.87,0.74-1.29,1.75-1.29,3c0,1.98,1.89,3.83,5.67,5.53
		c0.29,0.14,0.51,0.25,0.69,0.31c3.3,1.5,5.57,2.97,6.8,4.39c1.23,1.43,1.85,3.22,1.85,5.36c0,3.11-1,5.59-2.99,7.42
		c-2,1.83-4.69,2.75-8.09,2.75c-2.85,0-5.18-0.64-7-1.93C381.33,393.88,380.13,392.04,379.57,389.64L379.57,389.64z M448.1,371.34
		c-1.54-1.29-3.16-2.25-4.87-2.9c-1.71-0.64-3.52-0.97-5.4-0.97c-3.65,0-6.62,1.15-8.91,3.46c-2.29,2.31-3.44,5.29-3.44,8.96
		c0,3.54,1.11,6.47,3.34,8.78c2.23,2.31,5.04,3.46,8.43,3.46c1.98,0,3.86-0.35,5.65-1.04c1.78-0.69,3.5-1.72,5.14-3.12v6.04
		c-1.46,1.03-3.05,1.81-4.77,2.32c-1.72,0.51-3.59,0.77-5.59,0.77c-2.56,0-4.92-0.41-7.09-1.23c-2.17-0.83-4.08-2.04-5.72-3.64
		c-1.63-1.57-2.88-3.43-3.76-5.56c-0.87-2.13-1.31-4.41-1.31-6.81c0-2.41,0.44-4.68,1.31-6.79c0.88-2.12,2.14-3.98,3.8-5.58
		c1.66-1.62,3.56-2.84,5.71-3.67c2.14-0.84,4.47-1.25,6.96-1.25c1.96,0,3.83,0.28,5.61,0.84c1.79,0.57,3.51,1.42,5.18,2.56
		L448.1,371.34L448.1,371.34z M461.91,383.3h9.32l-3.43-7.5c-0.19-0.48-0.41-1.03-0.62-1.65c-0.21-0.62-0.43-1.31-0.64-2.08
		c-0.18,0.72-0.37,1.39-0.58,2.01c-0.2,0.62-0.41,1.2-0.62,1.72L461.91,383.3L461.91,383.3z M476.93,396.22l-3.79-8.46h-13.25
		l-3.88,8.46h-5.71l16.19-34.17l16.17,34.17H476.93L476.93,396.22z M485.91,396.22v-32.88h5.43v32.88H485.91L485.91,396.22z
		 M495.31,396.22l10.85-17.21l-9.59-15.68h5.71l4.82,8.04c0.26,0.42,0.74,1.29,1.43,2.61l0.34,0.65c0.25-0.47,0.51-0.96,0.81-1.48
		c0.3-0.53,0.64-1.1,1.02-1.73l5.09-8.09h5.57l-9.77,15.59l10.51,17.29h-6l-5.59-9.32l-0.09-0.16c-0.61-1.12-1.17-2.18-1.68-3.17
		c-0.26,0.51-0.55,1.03-0.85,1.59c-0.3,0.54-0.63,1.1-0.98,1.67l-5.85,9.39H495.31L495.31,396.22z M532.95,383.3h9.32l-3.43-7.5
		c-0.2-0.48-0.41-1.03-0.62-1.65c-0.21-0.62-0.43-1.31-0.64-2.08c-0.18,0.72-0.37,1.39-0.58,2.01c-0.2,0.62-0.41,1.2-0.62,1.72
		L532.95,383.3L532.95,383.3z M547.98,396.22h5.74l-16.17-34.17l-16.19,34.17h5.71l3.88-8.46h13.25L547.98,396.22L547.98,396.22z
		 M576.4,391.39h4.58c2.51,0,4.4-0.16,5.65-0.49c1.26-0.33,2.35-0.89,3.28-1.66c1.26-1.07,2.21-2.38,2.85-3.97
		c0.63-1.58,0.95-3.42,0.95-5.51c0-2.1-0.32-3.93-0.95-5.51c-0.63-1.59-1.58-2.91-2.85-3.97c-0.94-0.77-2.07-1.33-3.39-1.66
		c-1.32-0.33-3.38-0.49-6.19-0.49h-1.96h-1.96V391.39L576.4,391.39z M570.98,396.22v-32.88h7.32c4.77,0,8.12,0.24,10.07,0.71
		c1.94,0.48,3.64,1.26,5.11,2.37c1.93,1.46,3.4,3.32,4.4,5.6c1,2.28,1.5,4.88,1.5,7.8c0,2.92-0.5,5.5-1.5,7.76
		c-1,2.25-2.46,4.12-4.4,5.59c-1.47,1.1-3.13,1.89-5,2.37c-1.86,0.47-4.77,0.71-8.71,0.71h-1.47H570.98L570.98,396.22z
		 M603.74,374.79l4.33-12.19l4.18,1.33l-5.61,11.92L603.74,374.79L603.74,374.79z M625.95,383.3h9.32l-3.43-7.5
		c-0.19-0.48-0.41-1.03-0.62-1.65c-0.21-0.62-0.43-1.31-0.64-2.08c-0.18,0.72-0.37,1.39-0.58,2.01c-0.2,0.62-0.41,1.2-0.62,1.72
		L625.95,383.3L625.95,383.3z M640.98,396.22l-3.79-8.46h-13.25l-3.88,8.46h-5.71l16.19-34.17l16.17,34.17H640.98L640.98,396.22z
		 M627.31,360.12l4.35-6.12h5.14l-6.68,6.12H627.31L627.31,360.12z M668.38,379.39h13.23c0,0.22,0.01,0.54,0.02,0.94
		c0.05,1.07,0.07,1.78,0.07,2.15c0,4.62-1.35,8.22-4.04,10.77c-2.7,2.56-6.49,3.84-11.39,3.84c-2.74,0-5.18-0.4-7.33-1.19
		c-2.14-0.8-4.03-1.99-5.64-3.59c-1.58-1.59-2.8-3.45-3.64-5.6c-0.85-2.14-1.27-4.43-1.27-6.87c0-2.48,0.43-4.78,1.29-6.88
		c0.87-2.09,2.14-3.94,3.83-5.54c1.63-1.57,3.54-2.77,5.73-3.6c2.19-0.82,4.54-1.23,7.03-1.23c2.63,0,4.99,0.48,7.06,1.42
		c2.07,0.94,3.93,2.38,5.56,4.33l-3.96,2.94c-1.13-1.29-2.4-2.25-3.82-2.87c-1.41-0.63-2.99-0.94-4.75-0.94
		c-3.62,0-6.58,1.14-8.87,3.43c-2.29,2.28-3.44,5.25-3.44,8.9c0,3.72,1.15,6.73,3.44,9.04c2.29,2.31,5.26,3.47,8.92,3.47
		c3.1,0,5.55-0.71,7.33-2.13c1.79-1.43,2.67-3.36,2.67-5.82v-0.47h-8.04V379.39L668.38,379.39z M687.28,363.34h5.38v19.97
		c0,2.96,0.69,5.19,2.09,6.68c1.4,1.49,3.48,2.24,6.25,2.24c2.75,0,4.83-0.74,6.22-2.24c1.4-1.49,2.09-3.72,2.09-6.68v-19.97h5.43
		v20.46c0,4.45-1.14,7.78-3.42,9.99c-2.28,2.21-5.73,3.31-10.33,3.31c-4.6,0-8.03-1.1-10.3-3.3c-2.27-2.2-3.41-5.53-3.41-10V363.34
		L687.28,363.34z M728.46,383.3h9.32l-3.43-7.5c-0.19-0.48-0.41-1.03-0.62-1.65c-0.21-0.62-0.43-1.31-0.64-2.08
		c-0.18,0.72-0.37,1.39-0.58,2.01c-0.2,0.62-0.41,1.2-0.62,1.72L728.46,383.3L728.46,383.3z M743.49,396.22l-3.79-8.46h-13.25
		l-3.88,8.46h-5.71l16.19-34.17l16.17,34.17H743.49z"/>
	<path class="st1" d="M735.35,300.62v-12.01h4.63c0.93,0,1.64,0.11,2.12,0.32c0.48,0.22,0.87,0.6,1.16,1.14
		c0.29,0.55,0.43,1.15,0.43,1.81c0,0.85-0.24,1.57-0.72,2.16c-0.48,0.58-1.22,0.95-2.22,1.11c0.37,0.2,0.64,0.4,0.83,0.6
		c0.4,0.43,0.79,0.96,1.14,1.6l1.81,3.27h-1.73l-1.38-2.5c-0.4-0.72-0.73-1.28-0.99-1.66c-0.26-0.38-0.5-0.65-0.7-0.8
		c-0.2-0.15-0.42-0.26-0.63-0.32c-0.16-0.04-0.41-0.06-0.77-0.06h-1.6v5.34H735.35L735.35,300.62z M739.36,284.94
		c-5.49,0-9.95,4.45-9.95,9.95c0,5.49,4.45,9.95,9.95,9.95c5.49,0,9.95-4.45,9.95-9.95C749.31,289.39,744.85,284.94,739.36,284.94
		L739.36,284.94z M739.36,286.16c-4.82,0-8.72,3.91-8.72,8.72c0,4.82,3.91,8.72,8.72,8.72c4.82,0,8.72-3.91,8.72-8.72
		C748.08,290.07,744.18,286.16,739.36,286.16L739.36,286.16z M736.74,293.91h2.97c0.63,0,1.12-0.08,1.48-0.23
		c0.35-0.15,0.62-0.39,0.81-0.72c0.18-0.33,0.28-0.69,0.28-1.08c0-0.57-0.18-1.04-0.53-1.4c-0.36-0.37-0.92-0.55-1.69-0.55h-3.3
		V293.91z"/>
</g>
</svg>
