<?xml version="1.0" encoding="UTF-8"?>
<!DOCTYPE svg PUBLIC "-//W3C//DTD SVG 1.1//EN" "http://www.w3.org/Graphics/SVG/1.1/DTD/svg11.dtd">
<!-- Creator: CorelDRAW -->
<svg xmlns="http://www.w3.org/2000/svg" xml:space="preserve" width="364mm" height="94.397mm" version="1.1" style="shape-rendering:geometricPrecision; text-rendering:geometricPrecision; image-rendering:optimizeQuality; fill-rule:evenodd; clip-rule:evenodd"
viewBox="0 0 36400 9439.7"
 xmlns:xlink="http://www.w3.org/1999/xlink"
 xmlns:xodm="http://www.corel.com/coreldraw/odm/2003">
 <defs>
  <style type="text/css">
   <![CDATA[
    .fil0 {fill:#1D46AE}
    .fil1 {fill:#2146B1}
    .fil5 {fill:#C93409}
    .fil2 {fill:#D23101}
    .fil3 {fill:#D32D03}
    .fil4 {fill:#FAFAFA}
   ]]>
  </style>
 </defs>
 <g id="Camada_x0020_1">
  <metadata id="CorelCorpID_0Corel-Layer"/>
  <g id="_1680616446320">
   <path class="fil0" d="M26970.23 5159.45c-221.61,686.24 -1177.01,619.74 -1190.38,-263.42 -11.54,-761.97 540.21,-929.27 897.52,-762.23 122.01,57.03 173.06,138.11 220.13,229.61l51.68 95.25 1008.54 -124.63 -10.52 927.18 -976.97 -101.76zm-7472.34 -158.22c-153.8,-1016.66 864.36,-1181.7 946.76,-344.79 35.28,358.27 -29.51,759.34 -321.78,845.21 -382.51,112.37 -580.4,-205.74 -624.98,-500.42zm4104.67 -79.37c-33.8,256.99 -67.15,757.86 -620.28,685.89 -385.11,-50.12 -480.14,-464.06 -459.93,-872.21 47.28,-955.21 1213.41,-826.37 1080.21,186.32zm-11048.47 693.62c-273.6,101.94 -582.76,308.7 -966.19,113.46 -475,-241.88 -513.19,-1442.05 39.73,-1678.47 379.04,-162.07 655.02,-14.57 821.83,300.43l864.03 -144.04 3.03 461.45 -1392.59 2.46 9.51 663.1 623.01 5.58 -2.36 276.03zm17597.91 -1012.6c62.42,-335.64 177.3,-592.4 554.67,-592.57 358.9,-0.17 507.99,244.59 536.19,597.31l-1090.86 -4.74zm1535.28 1648.57l497.3 -690.51 -949.76 -86.64c-125.48,112.24 -123.94,153.92 -265.37,215.59 -331.1,144.37 -789.94,-6 -814.67,-527.66l2250.18 1.54c4.96,-298.73 0.47,-503.75 -66.38,-780.23 -89.31,-177.39 -503.56,-734.21 -570.05,-784.61 -454.47,-385.4 -1708.78,-397.8 -2254.71,78.18 -287.31,250.5 -240.91,283.72 -410.37,527.19l-1.54 -805.45 -1145.86 3.63 0.04 730.02c-251.87,-267.39 -289.36,-871.74 -1722.56,-839.55 -637.36,14.31 -1155.1,264.18 -1435.21,803.39 -43.36,83.48 -62.22,158.82 -99.19,217.38 -39.64,-64.62 -64.81,-145.57 -100.79,-215.78 -469.27,-915.87 -1774.29,-979.74 -2489.38,-576.33 -274.69,154.97 -439.6,348.28 -603.27,647.11 -183.97,-376.71 -330.94,-732.45 -856.39,-858.63 -801.58,-192.49 -1174.12,406.41 -1232.16,436.74l-3.75 -409.52 -2111.12 2.47c-71.89,908.93 222.4,2138.02 -440.03,2176.59 -661.73,38.54 -325.66,-1221.96 -419.26,-2178.18 -404.37,7.08 -832.76,13.41 -1220.61,-25.52 -208.78,-20.95 -373.34,9.7 -519.85,105.25 -133.89,87.32 -134.13,135.65 -219.66,258.09 -0.8,1.15 -36.17,48.49 -36.49,48.86l-51.88 -348.86 -1066.1 -5.55c-41.23,167.47 12.6,531.39 -32.81,620.67 -134.4,-309.1 -318.09,-503.76 -657.28,-609.9 -306.95,-96.05 -858.8,-94.29 -1188.42,-39.45 -685.03,113.98 -1156.74,673.65 -1181.11,1420.78 -13.06,400.38 49.59,775.78 223.22,1057.55 401.03,650.79 1169.62,768.48 1900.54,634.1 554.46,-101.94 755.07,-345.42 922.39,-373.3l0.07 272.66 1156.33 0.5c14.55,-484.47 -31.53,-1005.92 26.17,-1472.25 55.73,-450.37 284.36,-896.63 787.93,-594.96 40.28,788.14 -162.93,1553.31 405.2,1970.59 328.28,241.12 1000.82,241.46 1370.35,-57.17l301.08 -285.56 14.91 432.89 968.73 7.18 4.03 1077.78 1138.95 3.27 3.59 -1385.77c97.08,38.96 499.3,485.34 1211.42,278.39 243.59,-70.8 362.16,-162.01 497.51,-300.34 62.12,-63.49 128.12,-124.92 179.84,-217.96 44.66,-80.37 73.07,-194.98 136.56,-273.41 488.5,947.34 1825.11,1087.21 2645.14,542.26 262.12,-174.18 412.04,-421.46 528.31,-728.41 219.8,635.95 696.97,1008.28 1515.98,1033.64 416.92,12.91 784.88,2.92 1111.76,-163.28 256.28,-130.31 518.6,-344.55 625.67,-625.93l14.2 773.25 1132.21 2.55 12.39 -827.11c143.31,374.15 525.62,705.7 962.51,814.3 520.62,129.4 1167.44,67.03 1621.52,-106.57z"/>
   <path class="fil1" d="M1962.93 4022.28c0.79,-443.97 95.26,-880.3 246.76,-1245.39 460.96,-1110.82 1321.93,-1725.36 2640.84,-1801.63l3.2 -606.6c-502.52,-76.1 -1347.31,256.54 -1725.88,443.48 -1327.05,655.26 -2535.23,2257.92 -2529.42,3977.88 1.96,580.18 164.96,1294.6 395.55,1768.04 158.55,325.54 312.75,605.19 508.64,869.53 286.73,386.95 353.23,417.6 651.21,698.21 663.95,625.24 1753.11,1107.95 2693.01,1069.09l2.46 -2046.5c-444.36,-53.87 -787.34,-113.22 -1168.08,-287.68 -978.66,-448.42 -1719.08,-1423.51 -1718.54,-2600.31l0.25 -238.12z"/>
   <path class="fil1" d="M5188.33 980.1c1729.7,-14.32 2895.54,1404.08 2902.94,3095.09 3.97,907.02 -364.61,1702.51 -832.09,2165.99 -546.72,542.05 -1121.14,788.25 -1892.12,885.39l-179.52 44.25 -1.08 2026.41c3451.77,1.44 5847.26,-4550.87 2964.63,-7438.99 -438.68,-439.52 -601.96,-595.61 -1227.31,-942.85 -446.27,-247.8 -1136.39,-459.31 -1737.27,-457.28l1.82 621.99z"/>
   <path class="fil2" d="M4747.96 3324.24c-522.54,93.33 -856.01,307.27 -1111.91,616.5 -269.73,325.95 -427.27,779.03 -372.12,1324.54 90.4,894.28 945.61,1596.89 1937.21,1489.18 875.74,-95.13 1627.96,-931.33 1497.15,-1955.52 -107.95,-845.21 -948.95,-1653.53 -1950.33,-1474.7z"/>
   <path class="fil3" d="M31768.53 3598.93c66.49,50.4 480.74,607.22 570.05,784.61 64.42,-10.59 306.57,378.51 340.61,432.49 -33.07,87.78 -172.68,272.31 -236.32,363.59 -101.02,144.9 -169.15,240.3 -258.29,381.32l-497.3 690.51 -56.26 113.85 1217.29 4.94 634.98 -935.64c154.37,219.03 438.55,806.41 555.63,933.08l1275.25 4.03c-25.5,-122.71 -590.81,-888.72 -743.21,-1107.71 -69.92,-100.48 -218.22,-285.83 -262.98,-375.01 -65.29,-130.11 351.66,-620.26 438.3,-743.16l502.15 -723.08 -1235.63 -6.7 -529.51 806.56 -458.06 -800.38 -1326.54 -6.29 73.17 140.04c12.25,58.44 16.66,3.46 -3.33,42.95z"/>
   <path class="fil4" d="M32184.58 5560.94c89.14,-141.02 157.27,-236.42 258.29,-381.32 63.64,-91.28 203.25,-275.81 236.32,-363.59 -34.04,-53.98 -276.19,-443.08 -340.61,-432.49 66.85,276.48 71.34,481.5 66.38,780.23l-2250.18 -1.54c24.73,521.66 483.57,672.03 814.67,527.66 141.43,-61.67 139.89,-103.35 265.37,-215.59l949.76 86.64z"/>
   <path class="fil5" d="M28800.17 2476.77l-158.75 1.91 -52.92 109.98 -238.11 11.02 -41.87 103.21 -218.06 3.98c-33.96,214.52 11.41,86.97 -130.3,177.7l-2.84 361.26 1138.84 -17.18 25.89 -997.21c-201.16,-12.66 -102.63,17.51 -205.24,105.5 -196.23,168.28 -9.73,12.02 -116.64,139.83z"/>
  </g>
 </g>
</svg>
