<svg xmlns="http://www.w3.org/2000/svg" width="316.068" height="175.382" viewBox="0 0 237.051 131.536"><g fill-rule="evenodd"><path d="M144.85 36.936c-4.385 0-2.796-.437-5.04-.96v-9.84c1.334-.356.26-.72 2.641-.72 2.747 0 6.96 4.687 6.96 7.2 0 1.5-.131 2.612-1.008 3.312-.708.566-2.308 1.008-3.552 1.008zm-52.079-9.36v-2.4c5.923-3.966 3.93-4.112 10.08-3.6v1.68c-.775-.18-1.488-.48-2.4-.48-3.548 0-5.993 2.86-7.68 4.8zm-27.12 30c0 3.398 3.233 4.125 4.08 5.28-2.515 0-5.113.53-5.292-1.428-.109-1.194-.087-2.097-.207-3.153-.142-1.254-.414-2.054-.501-3.099 4.579-3.066 4.247-6.78 5.446-8.714l1.093-1.306c.448-.468.782-.73 1.177-1.224 5.146-6.426 3.131-4.677 5.633-8.767.42-.686 2.206-1.624 2.97-1.829.242.502.945 2.876.961 3.6 1.051-.28 2.06-1.774 2.64-2.64 2.603.607 2.02 1.355 3.12 2.16.626-.459 1.521-1.886 1.92-2.64 2.903 1.944 2.006 3.303 5.686 4.874 2.535 1.082 6.29 1.09 8.714-.074v4.08c-1.316-.696-2.447-1.241-4.047-1.713-1.635-.483-2.99-.5-5.005-.755-2.247-.285-5.122-.227-6.851-1.789-.666-.601-.708-1.02-1.617-1.263-.626 1.305-.632 2.251-2.086 2.954-1.452.701-2.056.74-3.146 1.894-.983 1.042-1.12 1.942-1.533 3.507C76.329 54.9 65.65 52.267 65.65 57.576zm19.68-32.88c-1.248.333-1.516 1.567-2.88 1.68-.078-.932-.374-1.506-.72-2.16-.735.353-1.665.607-2.4.96.178-.666 1.055-1.685 1.525-2.314.878-1.174 1.409-.806 3.275-.806.033 1.494.609 1.758 1.2 2.64zm-22.08 8.4c.192-.825 2.17-6.735 2.693-7.386 1.033-1.285 4.507-2.647 4.507 2.106 0 4.089-2.215 7.71-1.114 13.62.206 1.107.39 1.34-.566 1.98-.665-2.855-.72-.674-.72-5.04 0-3.58.811-6.59 1.318-9.98.214-1.432-.34-1.743-1.318-2.26-3.939 2.084-.487 5.955-4.8 6.96zm93.12-6.24-1.254-1.145 1.974-.775c-.121.52-.503 1.468-.72 1.92zm-78.48 5.28c0-1.052.55-4.138 1.313-4.687.177-.128 1.325-.536 1.567-.593.31.588.894 1.848.96 2.64 1.404-.743 1.05-.934 2.88-2.16l.755 2.389c.82-.217.721-.44 1.372-.981.44-.366 1.056-.889 1.473-1.168 1.484 2.805 2.88 2.925 2.88 5.52-.837-.56-1.755-1.567-2.64-2.16-.409.773-1.224 1.83-1.44 2.64-1.091-.8-1.033-2.125-2.16-2.88-1.065.713-1.275 1.806-2.88 2.88-.028-1.25-.477-2.075-.72-3.12-1.198.28-2.356 1.15-3.36 1.68zm7.44-7.44c.66.442 1.126.874 2.16.96-.4.598-.655.99-1.44 1.2-.215-.925-.53-1.346-.72-2.16zm72.96-7.2c.58.868 1.156 1.41 1.68 2.4l-3.355-.288c-.75 3.326.848 4.128-5.045 4.128-.479 0-1.92-1.32-2.16-1.68 2.25 0 4.56.442 4.56-1.44 0-1.003-.863-.983-1.902-.978-1.045.005-2.09.018-3.138.018.318-1.192.48-.268.48-2.16-1.096-.091-1.213-.464-1.44-1.44h3.84c.324 1.213.584.96 2.88.96.562 0 .96-.398.96-.96 0-1.014-.93-.72-1.92-.72.286-1.07.238-.637.997-.574l5.723.094c-.667.996-1.586 1.783-2.16 2.64zm6.72 5.28c-.956.203-.557.467-2.367-1.953-.366-.49-.653-.886-1.032-1.372-1.574-2.027-.698-2.303.387-.88 1.034 1.355 2.75 3.084 3.012 4.205zm-12.72 4.8v-1.68h.96c-.21.899-.445 1.088-.96 1.68zm-30.72 35.28c-.648-.434-1.026-.937-1.678-1.442-2.424-1.878-2.93-2.45-6.271-3.568-3.423-1.145-7.89-.94-7.89-5.07v-27.84h31.439v27.36c0 6.053-5.755 3.301-12.004 7.436-1.11.735-2.882 2.057-3.596 3.124zm53.04-24.24c0 4.06-.04 1.88-.72 4.8l-.923-.76c.764-3.796.515-5.947-.104-9.973-.309-2.01-2.198-7.33.922-8.102 3.708-.917 4.267 5.686 5.625 8.515-3.82-.89-1.909-4.038-3.788-6.298-.546-.656-1.523-.938-2.11-.086-.663.965.128 3.533.42 5.623.274 1.963.678 3.985.678 6.281zm-14.16-5.04c-.12-.088-2.213-2.181-2.4-2.88-1.113.093-.804.163-1.293 1.107-.377.729-.676.955-.867 1.773-.52-.381-1.54-2.114-1.68-2.64-1.378.73-1.523 1.412-2.64 2.16 0-2.017.21-1.77 1.098-2.982a71.135 71.135 0 0 0 1.782-2.538c.964.645 1.472 2.043 2.88 2.16.063-.76.45-1.838.72-2.4.557.373.725.64 1.295 1.105.656.536.73.744 1.585.815.23-.986.641-1.455.72-2.4a4.313 4.313 0 0 1 1.498.422c.852.438.604.264.87 1.29.255.992.73 2.563.752 3.568l-3.358-1.685c-.324.676-.772 2.31-.962 3.125zm-78.24-18.72 5.723-.094c.759-.063.711-.496.997.574-1.741 0-1.92-.376-1.92 1.44 1.55.361 1.022.24 2.88.24.73 0 .815-.416.96-.96h3.84c-.514.971-.238 1.34-1.44 1.44v1.68c.624.166.268-.089.48.48-.966 0-1.927 0-2.893-.012-1.556-.02-2.147-.05-2.147 1.212 0 1.596 2.91 1.2 4.56 1.2-2.109 1.833-1.06 1.68-3.84 1.68-3.58 0-3.36-1.56-3.36-4.08-1.596 0-2.078.24-3.6.24.6-.895 1.391-1.4 1.68-2.64-.697-1.04-1.234-1.103-1.92-2.4zm57.6 27.6v-3.6c2.301.192 5.446 1.904 10.077-.963.459-.284 3.425-3.41 3.603-4.077h.48c.168.63 1.221 2.39 2.16 2.64.133-.499 1.279-2.644 2.16-2.88.228.852.798 1.164 1.38 1.74.613.608 1.059 1.164 1.74 1.62.295-.614.94-2.728.96-3.6.702.164 1.124.425 1.686.714 1.745.898 1.404.98 2.19 2.61.943 1.955 2.373 4.178 3.748 5.852 3.762 4.578 2.804 1.64 4.703 7.298.81 2.416 2.191 4.286 4.233 5.366-.264 1.134-.431 2.118-.624 3.456-.21 1.453-.029 2.426-.336 3.744-1.475.708-3.164.48-5.28.48l1.277-.883c2.397-1.454 2.803-2.3 2.803-4.877 0-4.549-10.383-2.35-12.962-11.517-1.038-3.688-1.165-3.723-4.647-5.433-.688-.338-.953-.483-1.316-1.084-.257-.425-.634-1.367-.755-1.886-1.31.35-1.043 1.356-3.32 2.2-2.754 1.022-8.759.667-11.964 2.197-.764.364-1.161.689-1.996.883zm19.2 9.6c0 1.845.322 2.29 1.2 3.6-2.957.79-4.164 5.875-4.8 7.2h-5.04c2.133-4.03 5.28-3.354 5.28-7.92 0-2.516-3.84-4.222-3.84-5.76 0-2.226 7.534-3.264 9.322-2.362.678.342.541.473.758 1.402-1.416.378-2.88 2.015-2.88 3.84zm-48.48-48.72c0 1.192.3 2.096 1.44 2.4-.934 4.009-3.374 4.56-7.2 4.56-1.5 0-2.455-1.314-3.36-1.92.082-.986.24-.536.24-1.44 0-1.829-1.81-2.4-3.36-2.4-1.86 0-2.918 3.717-.298 4.858 1.25.544.625-.37 1.276.885l1.97 4.508c.482 1.117.882 2.168 1.372 3.19-1.985.462-1.552.72-4.08.72-1.059 0-1.71-.356-2.4-.72.32-1.371.96-2.137.96-4.08l-6.48.24-.73-1.436-12.47-.005c.254 1.092 1.308 1.967 1.92 2.88-.64 1.208-1.643 2.373-2.448 3.553-.87 1.277-1.753 2.395-2.592 3.647l1.871 1.73-2.591 5.71c.745.174.695.307 1.44.48-.5.944-.897 1.768-1.426 2.655-.516.864-.853 1.856-1.934 2.145 0-1.597.267-2.61.542-4.018.472-2.416 1.089-5.149-.334-7.23-1.876-2.743-5.775-1.954-7.585.271-1.146 1.409-2.52 6.239-3.156 8.124-.328.973-1.204 3.52-1.227 4.533.94-.497 1.926-.962 2.88-1.44.992-.497 2.167-.935 3.12-1.44 0 2.287-.33 4.64-.077 6.315.469 3.102 1.596 3.552.817 5.21-1.469 3.126-1.686 7.435-6.26 7.435.938 4.027.836.826 1.476 7.164.621 6.155 2.956 4.836 11.964 4.836 0-2.455-.66-3.398-2.54-4.66-2.356-1.584-1.773-.62-2.5-3.74 2.806-1.484 6.23-2.028 8.585-4.375.76-.757 1.356-1.53 2.215-2.105.043.037.113.035.132.108.2.76 2.85.734.255 4.12-.8 1.043-1.156.984-1.827 2.252 4.28.356 6.627 4.251 6.72 8.4h10.32c0-7.27-5.99-6.937-5.691-10.054.15-1.56 6.644-4.9 2.52-8.855-.877-.84-1.502-.923-1.629-2.45.633-.729 1.369-1.31 2.803-1.147 4.683.534 5.77.873 9.917 3.066 0 8.175-.856 11.689 6.047 13.393 3.214.793 4.523.969 7.081 2.52 1.437.87 4.442 3.357 4.872 4.967.879-.234.787-.402 1.305-1.095.415-.555.683-.778 1.154-1.245 3.11-3.081 5.523-4.016 10.024-5.096 7.076-1.699 6.237-5.4 6.237-13.684 4.213-2.229 4.417-2.037 9.266-2.752 1.742-.257 3.827.437 2.88 2.155-.94 1.706-2.546 1.729-2.546 4.437 0 4.794 7.456 4.18 1.3 8.98-2.274 1.774-3.22 3.624-3.22 6.86h10.32c0-4.206 2.403-8.04 6.72-8.4-1.05-1.567-5.185-5.416-1.2-6.48.827 1.236.97 1.46 2.192 2.369.918.684 1.663 1.236 2.764 1.795 1 .507 6.084 2.062 6.084 3.036 0 2.87-5.52 2.838-5.52 6.24v1.44c3.05 0 9.251.694 10.985-1.254.95-1.067.633-1.747.812-3.51.28-2.759.638-5.141 1.643-7.236-3.698 0-4.755-2.805-5.669-5.61-1.242-3.815-1.224-1.54-.242-5.1.737-2.674.151-5.56.151-8.25 1.934.45 4.453 1.935 6.24 2.88-.03-1.341-3.163-10.812-4.211-12.348-2.646-3.876-8.749-2.797-8.749 2.508 0 1.403.36 2.803.619 4.181.309 1.641.581 2.588.581 4.46-1.161-.778-1.967-2.587-2.655-3.825l-.705-1.456c.873-.203.77-.132 1.2-.72-.397-1.703-1.62-3.896-2.4-5.52l1.736-1.624c-.518-1.597-3.766-5.389-4.856-7.016.381-1.428 1.539-1.692 1.92-3.12h-12.72c-.17.734-.374.923-.72 1.44-1.94-.452-4.218-.24-6.24-.24 0 1.221.189 2.089.58 3.026.84 2.006.38.542.38 2.734-2.428-.565-3.968-1.361-6.72-.72.58-2.488 3.677-7.404 3.84-9.36 3.414-.076 3.518-5.04-.24-5.04-2.812 0-2.16 3.37-2.16 3.6 0 1.002-2.633 2.16-3.6 2.16-1.679 0-3.731-.132-4.868-1.131-3.709-3.259-.652-3.58-.652-5.349 0-3.864-5.04-3.644-5.04 0 0 1.09.513 1.252.96 1.92-2.12 1.553-1.72 3.6-6.96 3.6-3.174 0-4.953-1.677-6.24-3.6.369-1.583 1.386-2.548.076-3.916-1.428-1.49-4.396-.84-4.396 1.516zm-29.76 44.64c.127-.547.186-.552.24-1.2l3.84-.24c2.097 0 6.3 1.022 5.873 2.985-.484 2.222-3.713 1.882-3.713 6.375 0 3.293 4.829 4.42 5.04 6.96h-5.04c-.711-3.051-2.108-5.902-4.56-7.2 3.002-5.673-.734-6.39-1.68-7.68zm59.04-24.72v-1.68c3.403-.283 5.434-.744 9.437 3.283.937.941.643 1.023.643 2.717-.748-.5-3.499-4.8-7.44-4.8-1.139 0-1.734.269-2.64.48zm-61.92-.24c-.522-1.087.887-2.18 2.401-4.078.47-.588.76-.696.959-1.442.753.505.862.42.314 1.232-.328.485-.788 1-1.171 1.511-.837 1.115-1.624 2.542-2.503 2.777zm82.08 3.6c-1.01-.676-1.738-1.679-2.64-1.92.649-.968 1.163-1.187 1.2-2.88.785.377 1.524.24 2.64.24.347.518.599.89.995 1.405.401.52.75.816.925 1.475-.945-.079-1.414-.49-2.4-.72-.23.986-.641 1.455-.72 2.4zm-66.72 6.72c0-2.558.465-2.757 2.53-5.39.536-.682 1.078-1.107 1.75-1.61 2.118-1.584 5.56-.86 5.56.52v8.4c0 1.542-5.784 2.527-8.708.788-1.01-.6-1.132-1.215-1.132-2.708zm11.76-13.44h32.64v1.68h-32.64zM153.491 85.416c3.498 0 6.24.093 6.24 4.08v24.24c0 3.15-2.604 3.36-6 3.36v5.04h18.48c1.184 0 .72-1.892.72-5.04-1.482 0-2.03-.206-3.604-.236-4.727-.087-3.596-3.21-3.596-8.404v-16.08l1.295 1.826c.491.742.818 1.119 1.297 1.822a140.197 140.197 0 0 0 2.587 3.654l14.359 20.44c1.567 2.28.164 1.778 6.862 1.778v-33.12c0-4.754 6.24-2.247 6.24-4.08v-4.32h-18.24v5.04c6.443 0 6.48 1.19 6.48 7.92v13.44c-.736-.539-6.835-9.364-8.33-11.35l-9.527-13.273c-.41-.588-.94-1.165-1.103-1.777h-14.16zm-42.48-4.32c0 5.2-.323 4.181 1.874 4.366 2.228.188 4.606.76 4.606 3.554v25.44c0 3.994-6.48 1.44-6.48 3.36v4.08h38.88v-16.8h-4.32c0 13.452-8.854 12-21.12 12v-13.68h6.48c6.728 0 2.53 7.92 4.8 7.92 2.006 0 1.926.15 3.6-.24l.008-18.488c.042-2.513.473-2.152-3.608-2.152-1.045 0-.742 1.293-.721 2.4.127 6.6-2.638 5.52-10.559 5.52v-12.96c12.37 0 21.12-1.618 21.12 11.76h4.32v-16.8h-38.16c-.553 0-.72.167-.72.72zm-89.28 42c7.237 0 11.66-1.716 16.74-6.78 10.82-10.785 6.988-28.596-6.576-35.064-1.61-.767-6.315-2.137-7.756-2.192-15.295-.584-27.657 14.945-21.542 30.29 3.003 7.535 11.085 13.746 19.134 13.746zm-11.52-21.6c0-15.365 14.248-20.037 21.53-11.45 5.785 6.821 4.772 19.326-2.998 24.223-2.728 1.72-4.05 1.627-7.012 1.627-6.2 0-11.52-7.624-11.52-14.4zm33.84-16.08c3.253 0 6.96-.123 6.96 3.6v25.44c0 2.837-4.689 2.64-6.96 2.64v4.8h20.88v-4.8c-8.36 0-6.96-.315-6.96-13.44h6.24c8.01 0 6.48 11.485 6.48 18.24h14.64c0-6.764.37-4.65-2.856-5.064-5.273-.678-3.534-7.365-6.45-12.03-.981-1.568-2.118-2.826-4.614-2.826v-.24c13.221 0 13.906-21.36-4.8-21.36h-22.56zm19.68 12.96h-5.76v-12.96c5.383 0 13.92-1.023 13.92 6.24 0 5.532-3.1 6.72-8.16 6.72zm137.28-1.2h4.08c0-4.583 1.719-8.799 5.515-10.565 1.603-.746 2.785-.54 4.565-.955v19.92c0 2.002.405 8.333-.32 9.52-1.192 1.95-5.802 2-8.08 2 0 3.148-.463 5.04.72 5.04h22.08c1.184 0 .72-1.892.72-5.04-2.094 0-6.782-.052-7.966-1.873-.978-1.506-.434-7.25-.434-9.647v-19.92c2.44.569 5.194.152 7.513 3.287 1.518 2.052 2.567 4.782 2.567 8.233h4.08v-16.8h-35.04zm-113.76-11.76c2.812 0 6 .096 6 3.6v24.96c0 5.014-6 1.491-6 3.6v4.32h19.92c-.369-.768-.256-1.77-.232-2.887.035-1.67.371-2.12-1.178-2.183-2.335-.095-4.59.283-4.59-2.13v-25.92c0-2.916 2.179-3.187 4.591-3.34 1.776-.112 1.169 1.066 1.169-4.1 0-.586.532-.96-.48-.96h-19.2zm-69.12 45.12.071-.071c-.004.005-.095.048-.071.071" fill="#030406"/><path d="M110.531 31.656c.31 1.162.96.803.96 1.68v16.08c0 .615-.345.518-.96 1.68 1.084.52 2.699.341 8.39 3.61.344.196.798.491 1.158.762l1.252.908c2.678-1.417 7.673-4.76 11.04-5.04-.33-1.237-1.2-.87-1.2-2.4v-14.4c0-1.365.478-2.012 1.2-2.64-6.228-1.45-6.907-3.093-11.04-5.28-1.72.91-2.388 1.682-4.998 2.923-1.303.62-4.29 1.991-5.802 2.117zm6.24-.96 9.12 4.8v16.56l-9.12-4.8z" fill="#ed1c24"/></g></svg>